# xmcd
#
# Track frame offsets:
#	150
#	15600
#	35035
#	62922
#	90630
#	112545
#	132410
#	160625
#	179745
#	210622
#	231072
#	246050
#
# Disc length: 3616 seconds
#
# Revision: 1
# Processed by: cddbd v1.4PL0 Copyright (c) Steve Scherf et al.
# Submitted via: audiograbber 1.81.03
#
DISCID=9a0e1e0c
DTITLE=Rob Stone and The C-Notes - No Worries
DYEAR=1998
DGENRE=Blues
TTITLE0=I Just Keep Loving Her
TTITLE1=I've Got To Find My Baby
TTITLE2=Lost And Lonely
TTITLE3=Why Can't You Learn To Love Me
TTITLE4=Smokin' In The Gully
TTITLE5=Back Off Baby
TTITLE6=Don't Drive Me Away
TTITLE7=I've Been Loving You In My Mind
TTITLE8=You're Sweet
TTITLE9=Money's Getting Cheaper
TTITLE10=Hot Water
TTITLE11=Too Many Drivers
EXTD=
EXTT0=
EXTT1=
EXTT2=
EXTT3=
EXTT4=
EXTT5=
EXTT6=
EXTT7=
EXTT8=
EXTT9=
EXTT10=
EXTT11=
PLAYORDER=
